<svg width="205" height="63" viewBox="0 0 205 63" fill="none" xmlns="http://www.w3.org/2000/svg">
<path d="M17.1909 36.4401C17.2109 36.7083 17.3682 37.0622 17.6285 37.1867C18.6325 37.6733 19.9168 34.1755 23.0804 31.5626C26.7445 28.5377 29.7707 29.3008 30.6918 26.4833C31.1351 25.1284 30.5774 24.5091 31.2925 23.074C32.2879 21.0777 33.8553 21.2961 34.6219 19.7173C35.5029 17.9034 34.8021 14.79 32.96 13.4656C30.483 11.6849 26.6072 13.6121 25.4116 16.026C24.6364 17.5938 24.8938 19.5735 24.4305 19.5929C23.99 19.6122 23.9099 17.8039 22.9002 17.3477C21.5787 16.7504 18.9529 18.603 18.8528 20.674C18.7641 22.5819 20.8236 24.4787 20.4517 24.8409C20.3058 24.9846 19.9855 24.6916 19.7624 24.8022C19.3619 25.0012 19.4449 26.4031 20.9208 30.7691C20.9065 32.193 20.5089 33.064 20.1371 33.6004C19.0444 35.1903 17.1194 35.4198 17.1909 36.4401Z" fill="url(#paint0_linear_20_1145)"/>
<path d="M31.218 17.2648C30.3885 17.7846 29.6162 18.3846 28.9326 19.0786C28.2461 19.7699 27.654 20.5524 27.1706 21.4068C26.9304 21.8353 26.7101 22.2777 26.507 22.7312C26.4098 22.9607 26.3068 23.1874 26.2124 23.4197C26.1152 23.6492 26.0208 23.8815 25.9264 24.1165L25.3572 25.5211L25.2113 25.8723L25.0597 26.2207C24.9596 26.4529 24.8566 26.6824 24.7508 26.9147C24.542 27.3764 24.3217 27.8299 24.0957 28.2806C23.9813 28.5045 23.8669 28.7313 23.7468 28.9497L23.5694 29.2815L23.3864 29.6106L23.2033 29.9396L23.0145 30.2659L22.8257 30.5921L22.6284 30.9129L22.431 31.2336L22.2279 31.5488C22.0906 31.759 21.9562 31.9691 21.8132 32.1737L21.6015 32.4834L21.4957 32.6382L21.387 32.7903C21.2382 32.9894 21.0924 33.194 20.9408 33.3903L20.4802 33.9765C20.3258 34.1701 20.1599 34.3581 19.9997 34.5461C19.3476 35.2954 18.6525 36.0033 17.8974 36.6337L17.8602 36.5894C18.5524 35.8899 19.1988 35.1461 19.8023 34.3664L20.0255 34.0705C20.0998 33.971 20.1771 33.877 20.2486 33.7747L20.6805 33.1719C20.9579 32.7627 21.2354 32.3534 21.4985 31.9332C21.633 31.7258 21.7617 31.5129 21.8904 31.3L22.082 30.982L22.268 30.6585L22.4568 30.3377L22.6398 30.0115L22.82 29.6852L22.9974 29.3562C23.4636 28.4769 23.9098 27.5838 24.316 26.6713C24.7222 25.7589 25.0997 24.8271 25.4859 23.8953C25.5831 23.663 25.6804 23.428 25.7805 23.1957C25.8806 22.9635 25.9893 22.734 26.0951 22.5045C26.3154 22.0483 26.5471 21.5948 26.8102 21.1607C26.876 21.0528 26.9475 20.9478 27.0162 20.8399L27.1191 20.6823L27.2307 20.5275C27.3051 20.4252 27.3766 20.3201 27.4538 20.2206L27.6912 19.9275C27.7684 19.828 27.8543 19.7367 27.9372 19.6427L28.0631 19.5044C28.106 19.4574 28.146 19.4104 28.1918 19.369C28.3691 19.1948 28.5436 19.015 28.7295 18.8491C29.4732 18.1883 30.2999 17.6325 31.1894 17.2122L31.218 17.2648Z" fill="url(#paint1_linear_20_1145)"/>
<path d="M6.41022 13.7919C9.8741 14.0352 14.3277 14.0214 19.2675 13.8831L17.3625 31.6511L6.81639 32.1184L6.41022 13.7919Z" fill="url(#paint2_linear_20_1145)"/>
<path d="M6.41022 15.0804C9.8741 15.3237 14.3277 15.3099 19.2675 15.1716L17.3625 32.9396L6.81639 33.4069L6.41022 15.0804Z" fill="url(#paint3_linear_20_1145)"/>
<path d="M24.5019 25.4823C22.1621 33.1165 18.1233 38.3645 15.4861 37.2032C12.8488 36.0419 12.6057 28.9109 14.9483 21.2767C17.2881 13.6426 21.3269 8.39456 23.9642 9.55587C26.6014 10.7172 26.8446 17.8481 24.5019 25.4823Z" fill="url(#paint4_linear_20_1145)"/>
<path d="M24.0814 19.9357C23.8612 20.2509 22.6284 19.4048 21.3241 18.0417C20.0197 16.6785 19.1416 15.3209 19.3619 15.0057C19.5821 14.6905 20.8149 15.5366 22.1192 16.8997C23.4236 18.2629 24.3017 19.6205 24.0814 19.9357Z" fill="url(#paint5_linear_20_1145)"/>
<path d="M22.6799 23.9008C22.4596 24.216 21.2268 23.3699 19.9225 22.0067C18.6182 20.6464 17.74 19.286 17.9603 18.9708C18.1805 18.6555 19.4133 19.5016 20.7177 20.8648C22.022 22.2279 22.9001 23.5856 22.6799 23.9008Z" fill="url(#paint6_linear_20_1145)"/>
<path d="M21.3098 27.4096C21.0895 27.7248 19.8567 26.8787 18.5524 25.5155C17.2481 24.1551 16.3699 22.7948 16.5902 22.4795C16.8104 22.1643 18.0432 23.0104 19.3476 24.3736C20.6519 25.734 21.53 27.0943 21.3098 27.4096Z" fill="url(#paint7_linear_20_1145)"/>
<path d="M19.7966 30.8548C19.5764 31.17 18.3436 30.3239 17.0392 28.9607C15.7349 27.6004 14.8568 26.24 15.077 25.9248C15.2973 25.6096 16.5301 26.4556 17.8344 27.8188C19.1387 29.1819 20.0169 30.5396 19.7966 30.8548Z" fill="url(#paint8_linear_20_1145)"/>
<path d="M6.98799 18.0058L7.16247 10.0398L4.11905 9.97617L3.94457 17.9781C3.59561 18.2325 2.13969 19.333 2.12539 19.9081C2.11395 20.4915 1.79073 35.1156 1.72208 38.2678C1.7135 38.6438 2.0024 38.9894 2.35708 39.1415C2.96633 39.4042 3.99892 39.7609 4.95428 39.7802C5.90964 39.7996 6.87643 39.4844 7.49713 39.2466C7.85753 39.1083 8.05204 38.7737 8.06062 38.3977L8.46679 19.8749C8.46679 19.8749 8.46393 19.0039 6.98799 18.0058Z" fill="url(#paint9_linear_20_1145)"/>
<path d="M7.02516 24.0141L3.64421 23.945C3.45828 23.9422 3.30382 24.0832 3.2981 24.2657L3.10646 33.0059C3.1036 33.1857 3.24948 33.335 3.43826 33.3405L6.81921 33.4096C7.00514 33.4124 7.15959 33.2714 7.16531 33.0889L7.35696 24.3487C7.35982 24.1662 7.21108 24.0169 7.02516 24.0141Z" fill="url(#paint10_linear_20_1145)"/>
<path d="M7.03662 15.6777L3.99606 15.6141L4.08187 11.6933L7.12243 11.7569L7.03662 15.6777Z" fill="url(#paint11_linear_20_1145)"/>
<path d="M6.99371 9.05542L4.33072 9.00012C4.08472 8.99459 3.88164 9.18261 3.87878 9.4204L3.83301 11.5024C3.82729 11.7402 4.0218 11.9366 4.26779 11.9393L6.93078 11.9946C7.17677 12.0001 7.37986 11.8121 7.38272 11.5743L7.42849 9.49229C7.43135 9.25727 7.23684 9.06095 6.99371 9.05542Z" fill="url(#paint12_linear_20_1145)"/>
<path d="M12.6314 20.1569C12.108 20.345 11.5302 20.3505 10.9982 20.1791C10.4061 19.9883 9.44784 19.9468 7.99478 20.5772C5.14586 21.8104 5.24598 27.1967 9.29052 28.0013C14.5707 29.052 17.0507 26.5248 17.5055 24.7054C17.9603 22.886 16.7561 20.5717 14.4106 20.0795C13.644 19.9192 13.0548 20.0049 12.6314 20.1569Z" fill="url(#paint13_linear_20_1145)"/>
<path opacity="0.23" d="M8.9816 20.9809C9.44498 21.0113 10.3117 21.2021 9.51649 22.1809C8.72418 23.1625 8.05771 24.78 8.39809 25.8307C8.73562 26.8814 6.53314 25.5819 6.40729 24.1883C6.28143 22.792 7.53999 20.8924 8.9816 20.9809Z" fill="white"/>
<path d="M13.3437 20.7708C13.3437 21.0252 12.6629 21.2325 11.8248 21.2325C10.9867 21.2325 10.306 21.0252 10.306 20.7708C10.306 20.5164 10.9867 20.7708 11.8248 20.7708C12.6629 20.7708 13.3437 20.5164 13.3437 20.7708Z" fill="url(#paint14_linear_20_1145)"/>
<path d="M11.4301 20.7099C11.4301 20.7099 10.9467 18.7689 13.2407 17.5274C15.5347 16.2859 15.4832 16.1726 15.6062 16.8307C15.732 17.4887 16.4243 19.8168 13.91 20.8178C11.3957 21.8159 11.4301 20.7099 11.4301 20.7099Z" fill="url(#paint15_linear_20_1145)"/>
<path opacity="0.23" d="M15.1914 16.8997C14.831 17.4666 13.1606 20.0214 11.6904 21.0307C11.6904 21.0307 13.4352 21.2491 14.6852 20.1154C15.7549 19.1477 15.4174 17.4002 15.2973 16.9136C15.283 16.8693 15.2172 16.8583 15.1914 16.8997Z" fill="white"/>
<path d="M11.719 21.0666C11.7676 21.3846 12.0479 21.0334 11.9164 20.4002C11.7848 19.7671 11.6503 18.2629 10.7036 18.5256C9.75965 18.791 11.5188 19.7228 11.719 21.0666Z" fill="url(#paint16_linear_20_1145)"/>
<path d="M6.31009 34.6318L5.27177 46.9361L5.10302 49.831C4.73689 51.6974 4.34788 53.0053 3.99606 53.0108C3.18086 53.0246 2.01955 51.5924 1.15 50.4228C0.798176 49.9472 0.494978 49.5131 0.280451 49.2393C-0.457521 48.2854 0.466377 39.7111 0.712368 38.5802C0.958358 37.4493 1.12426 28.593 1.04131 28.1589C0.961219 27.722 1.69919 23.9893 1.69919 23.9893L2.77754 25.181L2.84905 25.2584L4.4909 24.3459L5.22887 25.4575C5.22887 25.4575 5.91822 31.0704 6.31009 34.6318Z" fill="url(#paint17_linear_20_1145)"/>
<path d="M32.0819 50.3177C32.1105 51.2882 31.5899 52.1536 30.789 52.6347C30.4029 52.867 29.9509 53.0053 29.4647 53.0274C21.9448 53.3288 4.56813 55.0679 3.99892 53.008C3.34389 50.6246 5.88961 39.8272 5.80666 38.4779C5.72371 37.1286 5.22887 25.4575 5.22887 25.4575L6.49887 25.7616L6.87357 25.8528L9.58519 24.6611L11.9679 25.933L15.0885 24.6611L17.4712 26.0105L19.8539 25.0565L21.8246 26.0105L24.2903 24.6611L25.8492 25.8528L28.3949 24.6611L29.8737 26.0105L31.4354 24.6611L31.5155 25.933C31.5155 25.933 31.8988 43.4604 32.0819 50.3177Z" fill="url(#paint18_linear_20_1145)"/>
<path d="M58.4 15C61.6 15 63.9833 15.75 65.55 17.25C67.1167 18.75 67.9 20.9667 67.9 23.9C67.9 25.4667 67.5167 26.85 66.75 28.05C65.9833 29.2167 64.85 30.1333 63.35 30.8C61.85 31.4333 60 31.75 57.8 31.75L58 29.5C59.0333 29.5 60.2167 29.65 61.55 29.95C62.8833 30.2167 64.1667 30.7167 65.4 31.45C66.6667 32.15 67.7 33.15 68.5 34.45C69.3333 35.7167 69.75 37.35 69.75 39.35C69.75 41.55 69.3833 43.35 68.65 44.75C67.95 46.15 67.0167 47.2333 65.85 48C64.6833 48.7667 63.4333 49.3 62.1 49.6C60.7667 49.8667 59.4833 50 58.25 50H45.8C44.9333 50 44.2 49.7167 43.6 49.15C43.0333 48.55 42.75 47.8167 42.75 46.95V18.05C42.75 17.1833 43.0333 16.4667 43.6 15.9C44.2 15.3 44.9333 15 45.8 15H58.4ZM57.5 20.9H48.6L49.25 20.1V29.15L48.65 28.7H57.65C58.6167 28.7 59.4833 28.3833 60.25 27.75C61.0167 27.1167 61.4 26.2 61.4 25C61.4 23.5667 61.0333 22.5333 60.3 21.9C59.6 21.2333 58.6667 20.9 57.5 20.9ZM57.9 34.6H48.8L49.25 34.2V44.75L48.75 44.25H58.25C59.7833 44.25 61 43.85 61.9 43.05C62.8 42.2167 63.25 40.9833 63.25 39.35C63.25 37.85 62.95 36.7667 62.35 36.1C61.75 35.4333 61.0333 35.0167 60.2 34.85C59.3667 34.6833 58.6 34.6 57.9 34.6ZM96.9137 22.75C97.7803 22.75 98.497 23.0333 99.0637 23.6C99.6303 24.1667 99.9137 24.9 99.9137 25.8V46.95C99.9137 47.8167 99.6303 48.55 99.0637 49.15C98.497 49.7167 97.7803 50 96.9137 50C96.047 50 95.3303 49.7167 94.7637 49.15C94.197 48.55 93.9137 47.8167 93.9137 46.95V44.5L95.0137 44.95C95.0137 45.3833 94.7803 45.9167 94.3137 46.55C93.847 47.15 93.2137 47.75 92.4137 48.35C91.6137 48.95 90.6637 49.4667 89.5637 49.9C88.497 50.3 87.3303 50.5 86.0637 50.5C83.7637 50.5 81.6803 49.9167 79.8137 48.75C77.947 47.55 76.4637 45.9167 75.3637 43.85C74.297 41.75 73.7637 39.35 73.7637 36.65C73.7637 33.9167 74.297 31.5167 75.3637 29.45C76.4637 27.35 77.9303 25.7167 79.7637 24.55C81.597 23.35 83.6303 22.75 85.8637 22.75C87.297 22.75 88.6137 22.9667 89.8137 23.4C91.0137 23.8333 92.047 24.3833 92.9137 25.05C93.8137 25.7167 94.497 26.4 94.9637 27.1C95.4637 27.7667 95.7137 28.3333 95.7137 28.8L93.9137 29.45V25.8C93.9137 24.9333 94.197 24.2167 94.7637 23.65C95.3303 23.05 96.047 22.75 96.9137 22.75ZM86.8137 45C88.2803 45 89.5637 44.6333 90.6637 43.9C91.7637 43.1667 92.6137 42.1667 93.2137 40.9C93.847 39.6333 94.1637 38.2167 94.1637 36.65C94.1637 35.05 93.847 33.6167 93.2137 32.35C92.6137 31.0833 91.7637 30.0833 90.6637 29.35C89.5637 28.6167 88.2803 28.25 86.8137 28.25C85.3803 28.25 84.1137 28.6167 83.0137 29.35C81.9137 30.0833 81.047 31.0833 80.4137 32.35C79.8137 33.6167 79.5137 35.05 79.5137 36.65C79.5137 38.2167 79.8137 39.6333 80.4137 40.9C81.047 42.1667 81.9137 43.1667 83.0137 43.9C84.1137 44.6333 85.3803 45 86.8137 45ZM104.86 45.85C104.527 45.3833 104.377 44.7833 104.41 44.05C104.443 43.3167 104.877 42.6833 105.71 42.15C106.243 41.8167 106.81 41.6833 107.41 41.75C108.01 41.7833 108.593 42.0833 109.16 42.65C110.127 43.6167 111.143 44.3667 112.21 44.9C113.277 45.4333 114.61 45.7 116.21 45.7C116.71 45.6667 117.26 45.6 117.86 45.5C118.46 45.3667 118.977 45.1 119.41 44.7C119.877 44.2667 120.11 43.6167 120.11 42.75C120.11 42.0167 119.86 41.4333 119.36 41C118.86 40.5667 118.193 40.2 117.36 39.9C116.56 39.6 115.66 39.3167 114.66 39.05C113.627 38.75 112.56 38.4167 111.46 38.05C110.393 37.6833 109.41 37.2167 108.51 36.65C107.61 36.05 106.877 35.2667 106.31 34.3C105.743 33.3333 105.46 32.1167 105.46 30.65C105.46 28.9833 105.927 27.5667 106.86 26.4C107.793 25.2333 108.993 24.3333 110.46 23.7C111.96 23.0667 113.527 22.75 115.16 22.75C116.193 22.75 117.277 22.8833 118.41 23.15C119.543 23.3833 120.627 23.7833 121.66 24.35C122.693 24.8833 123.56 25.6 124.26 26.5C124.627 27 124.843 27.6 124.91 28.3C124.977 29 124.66 29.6333 123.96 30.2C123.46 30.6 122.877 30.7833 122.21 30.75C121.543 30.6833 120.993 30.45 120.56 30.05C119.993 29.3167 119.227 28.7333 118.26 28.3C117.327 27.8667 116.243 27.65 115.01 27.65C114.51 27.65 113.96 27.7167 113.36 27.85C112.793 27.95 112.293 28.2 111.86 28.6C111.427 28.9667 111.21 29.5667 111.21 30.4C111.21 31.1667 111.46 31.7833 111.96 32.25C112.46 32.6833 113.127 33.05 113.96 33.35C114.827 33.6167 115.743 33.8833 116.71 34.15C117.71 34.4167 118.727 34.7333 119.76 35.1C120.793 35.4667 121.743 35.95 122.61 36.55C123.477 37.15 124.177 37.9333 124.71 38.9C125.243 39.8333 125.51 41.0333 125.51 42.5C125.51 44.2 125.01 45.65 124.01 46.85C123.01 48.05 121.76 48.9667 120.26 49.6C118.76 50.2 117.227 50.5 115.66 50.5C113.693 50.5 111.727 50.1667 109.76 49.5C107.793 48.8 106.16 47.5833 104.86 45.85ZM134.031 50C133.165 50 132.448 49.7167 131.881 49.15C131.315 48.55 131.031 47.8167 131.031 46.95V16.05C131.031 15.1833 131.315 14.4667 131.881 13.9C132.448 13.3 133.165 13 134.031 13C134.898 13 135.615 13.3 136.181 13.9C136.748 14.4667 137.031 15.1833 137.031 16.05V46.95C137.031 47.8167 136.748 48.55 136.181 49.15C135.615 49.7167 134.898 50 134.031 50ZM149.931 23.25C150.698 23.25 151.365 23.5667 151.931 24.2C152.498 24.8333 152.781 25.45 152.781 26.05C152.781 26.85 152.381 27.6 151.581 28.3L136.531 42.15L136.281 35.25L147.731 24.2C148.365 23.5667 149.098 23.25 149.931 23.25ZM150.681 49.95C149.815 49.95 149.081 49.6167 148.481 48.95L139.231 39.15L143.781 34.95L152.781 44.75C153.415 45.4167 153.731 46.1667 153.731 47C153.731 47.8667 153.381 48.5833 152.681 49.15C152.015 49.6833 151.348 49.95 150.681 49.95ZM170.475 50.5C167.642 50.5 165.175 49.9167 163.075 48.75C161.008 47.55 159.408 45.9333 158.275 43.9C157.175 41.8667 156.625 39.5667 156.625 37C156.625 34 157.225 31.45 158.425 29.35C159.658 27.2167 161.258 25.5833 163.225 24.45C165.192 23.3167 167.275 22.75 169.475 22.75C171.175 22.75 172.775 23.1 174.275 23.8C175.808 24.5 177.158 25.4667 178.325 26.7C179.492 27.9 180.408 29.3 181.075 30.9C181.775 32.5 182.125 34.2 182.125 36C182.092 36.8 181.775 37.45 181.175 37.95C180.575 38.45 179.875 38.7 179.075 38.7H159.975L158.475 33.7H176.825L175.725 34.7V33.35C175.658 32.3833 175.308 31.5167 174.675 30.75C174.075 29.9833 173.308 29.3833 172.375 28.95C171.475 28.4833 170.508 28.25 169.475 28.25C168.475 28.25 167.542 28.3833 166.675 28.65C165.808 28.9167 165.058 29.3667 164.425 30C163.792 30.6333 163.292 31.4833 162.925 32.55C162.558 33.6167 162.375 34.9667 162.375 36.6C162.375 38.4 162.742 39.9333 163.475 41.2C164.242 42.4333 165.208 43.3833 166.375 44.05C167.575 44.6833 168.842 45 170.175 45C171.408 45 172.392 44.9 173.125 44.7C173.858 44.5 174.442 44.2667 174.875 44C175.342 43.7 175.758 43.45 176.125 43.25C176.725 42.95 177.292 42.8 177.825 42.8C178.558 42.8 179.158 43.05 179.625 43.55C180.125 44.05 180.375 44.6333 180.375 45.3C180.375 46.2 179.908 47.0167 178.975 47.75C178.108 48.4833 176.892 49.1333 175.325 49.7C173.758 50.2333 172.142 50.5 170.475 50.5ZM187.667 23.75H199.517C200.317 23.75 200.984 24.0167 201.517 24.55C202.051 25.0833 202.317 25.75 202.317 26.55C202.317 27.3167 202.051 27.9667 201.517 28.5C200.984 29 200.317 29.25 199.517 29.25H187.667C186.867 29.25 186.201 28.9833 185.667 28.45C185.134 27.9167 184.867 27.25 184.867 26.45C184.867 25.6833 185.134 25.05 185.667 24.55C186.201 24.0167 186.867 23.75 187.667 23.75ZM193.017 17.5C193.884 17.5 194.584 17.8 195.117 18.4C195.684 18.9667 195.967 19.6833 195.967 20.55V42.8C195.967 43.2667 196.051 43.65 196.217 43.95C196.417 44.25 196.667 44.4667 196.967 44.6C197.301 44.7333 197.651 44.8 198.017 44.8C198.417 44.8 198.784 44.7333 199.117 44.6C199.451 44.4333 199.834 44.35 200.267 44.35C200.734 44.35 201.151 44.5667 201.517 45C201.917 45.4333 202.117 46.0333 202.117 46.8C202.117 47.7333 201.601 48.5 200.567 49.1C199.567 49.7 198.484 50 197.317 50C196.617 50 195.834 49.95 194.967 49.85C194.134 49.7167 193.334 49.4333 192.567 49C191.834 48.5333 191.217 47.8333 190.717 46.9C190.217 45.9667 189.967 44.6833 189.967 43.05V20.55C189.967 19.6833 190.251 18.9667 190.817 18.4C191.417 17.8 192.151 17.5 193.017 17.5Z" fill="url(#paint19_linear_20_1145)"/>
<defs>
<linearGradient id="paint0_linear_20_1145" x1="21.903" y1="15.5733" x2="28.259" y2="33.5797" gradientUnits="userSpaceOnUse">
<stop stop-color="#41A362"/>
<stop offset="1" stop-color="#204F2E"/>
</linearGradient>
<linearGradient id="paint1_linear_20_1145" x1="22.082" y1="20.4283" x2="26.7053" y2="33.526" gradientUnits="userSpaceOnUse">
<stop stop-color="#41A362"/>
<stop offset="1" stop-color="#204F2E"/>
</linearGradient>
<linearGradient id="paint2_linear_20_1145" x1="13.5067" y1="4.35627" x2="11.9932" y2="27.3798" gradientUnits="userSpaceOnUse">
<stop stop-color="#53D8FF"/>
<stop offset="1" stop-color="#3840F7"/>
</linearGradient>
<linearGradient id="paint3_linear_20_1145" x1="6.77208" y1="14.8567" x2="17.8267" y2="32.6544" gradientUnits="userSpaceOnUse">
<stop stop-color="#53D8FF"/>
<stop offset="1" stop-color="#3840F7"/>
</linearGradient>
<linearGradient id="paint4_linear_20_1145" x1="27.1507" y1="2.00041" x2="9.37356" y2="56.7749" gradientUnits="userSpaceOnUse">
<stop stop-color="#FDF53F"/>
<stop offset="0.653" stop-color="#E57C58"/>
<stop offset="1" stop-color="#D93C65"/>
</linearGradient>
<linearGradient id="paint5_linear_20_1145" x1="30.6542" y1="13.0831" x2="10.2489" y2="23.8102" gradientUnits="userSpaceOnUse">
<stop stop-color="#FDF53F"/>
<stop offset="0.653" stop-color="#E57C58"/>
<stop offset="1" stop-color="#D93C65"/>
</linearGradient>
<linearGradient id="paint6_linear_20_1145" x1="31.2911" y1="16.0486" x2="10.8858" y2="26.7757" gradientUnits="userSpaceOnUse">
<stop stop-color="#FDF53F"/>
<stop offset="0.653" stop-color="#E57C58"/>
<stop offset="1" stop-color="#D93C65"/>
</linearGradient>
<linearGradient id="paint7_linear_20_1145" x1="26.6223" y1="22.628" x2="11.2995" y2="27.5817" gradientUnits="userSpaceOnUse">
<stop stop-color="#FDF53F"/>
<stop offset="0.653" stop-color="#E57C58"/>
<stop offset="1" stop-color="#D93C65"/>
</linearGradient>
<linearGradient id="paint8_linear_20_1145" x1="27.0666" y1="25.4826" x2="11.7438" y2="30.4363" gradientUnits="userSpaceOnUse">
<stop stop-color="#FDF53F"/>
<stop offset="0.653" stop-color="#E57C58"/>
<stop offset="1" stop-color="#D93C65"/>
</linearGradient>
<linearGradient id="paint9_linear_20_1145" x1="14.7228" y1="9.96234" x2="-19.3806" y2="70.6617" gradientUnits="userSpaceOnUse">
<stop stop-color="#2C759E"/>
<stop offset="1" stop-color="#051042"/>
</linearGradient>
<linearGradient id="paint10_linear_20_1145" x1="8.49911" y1="23.2398" x2="-3.76231" y2="45.0636" gradientUnits="userSpaceOnUse">
<stop stop-color="#CE1567"/>
<stop offset="1" stop-color="#7A1DBC"/>
</linearGradient>
<linearGradient id="paint11_linear_20_1145" x1="6.82172" y1="11.5859" x2="4.42313" y2="15.855" gradientUnits="userSpaceOnUse">
<stop stop-color="#CE1567"/>
<stop offset="1" stop-color="#7A1DBC"/>
</linearGradient>
<linearGradient id="paint12_linear_20_1145" x1="6.92798" y1="8.33931" x2="2.05731" y2="17.0085" gradientUnits="userSpaceOnUse">
<stop stop-color="#CE1567"/>
<stop offset="1" stop-color="#7A1DBC"/>
</linearGradient>
<linearGradient id="paint13_linear_20_1145" x1="3.70361" y1="12.5614" x2="10.7381" y2="23.2108" gradientUnits="userSpaceOnUse">
<stop stop-color="#FDF53F"/>
<stop offset="1" stop-color="#D93C65"/>
</linearGradient>
<linearGradient id="paint14_linear_20_1145" x1="12.8331" y1="19.5535" x2="11.4046" y2="21.4117" gradientUnits="userSpaceOnUse">
<stop stop-color="#FDF53F"/>
<stop offset="1" stop-color="#D93C65"/>
</linearGradient>
<linearGradient id="paint15_linear_20_1145" x1="11.3862" y1="18.8327" x2="15.7863" y2="18.8327" gradientUnits="userSpaceOnUse">
<stop stop-color="#152C19"/>
<stop offset="0.9964" stop-color="#397851"/>
</linearGradient>
<linearGradient id="paint16_linear_20_1145" x1="10.4269" y1="19.8417" x2="11.951" y2="19.8417" gradientUnits="userSpaceOnUse">
<stop stop-color="#E40045"/>
<stop offset="1" stop-color="#5C0E16"/>
</linearGradient>
<linearGradient id="paint17_linear_20_1145" x1="28.4444" y1="2.91481" x2="-7.02034" y2="55.7828" gradientUnits="userSpaceOnUse">
<stop stop-color="#FDF53F"/>
<stop offset="1" stop-color="#D93C65"/>
</linearGradient>
<linearGradient id="paint18_linear_20_1145" x1="35.0311" y1="18.0179" x2="-5.86359" y2="72.4266" gradientUnits="userSpaceOnUse">
<stop stop-color="#FDF53F"/>
<stop offset="1" stop-color="#D93C65"/>
</linearGradient>
<linearGradient id="paint19_linear_20_1145" x1="122" y1="0" x2="122" y2="63" gradientUnits="userSpaceOnUse">
<stop stop-color="#F6CF48"/>
<stop offset="1" stop-color="#DF5C5F"/>
</linearGradient>
</defs>
</svg>
