<svg width="17" height="15" viewBox="0 0 17 15" fill="none" xmlns="http://www.w3.org/2000/svg">
<path fill-rule="evenodd" clip-rule="evenodd" d="M13.875 3.54919L10.2102 8.59362L8.06056 6.44397C7.98095 6.36569 7.88628 6.30437 7.78228 6.26373C7.67828 6.22309 7.56711 6.20398 7.45551 6.20755C7.34391 6.21112 7.2342 6.23729 7.13301 6.28449C7.03182 6.33169 6.94126 6.39893 6.8668 6.48214L4.27682 9.46156L3.4371 8.62128C3.3625 8.54657 3.2739 8.48729 3.17637 8.44685C3.07884 8.40641 2.97429 8.3856 2.86871 8.3856C2.76312 8.3856 2.65858 8.40641 2.56105 8.44685C2.46352 8.48729 2.37492 8.54657 2.30032 8.62128L2.20074 8.72086C2.12603 8.79546 2.06676 8.88406 2.02631 8.98159C1.98587 9.07912 1.96506 9.18366 1.96506 9.28925C1.96506 9.39483 1.98587 9.49938 2.02631 9.59691C2.06676 9.69444 2.12603 9.78304 2.20074 9.85764L3.62518 11.2826C3.71977 11.3776 3.83677 11.4473 3.96538 11.4851C4.12708 11.5799 4.3168 11.6151 4.50176 11.5848C4.68671 11.5545 4.85526 11.4605 4.97825 11.3191L7.52785 8.38729L9.66091 10.5198C9.75829 10.6179 9.87954 10.689 10.0127 10.7261C10.1608 10.8228 10.3404 10.8588 10.5143 10.8268C10.6882 10.7948 10.8431 10.6971 10.947 10.5541L14.6976 5.39183C15.2321 7.21675 15.0535 9.17658 14.1978 10.8748C13.3421 12.573 11.8734 13.8828 10.0886 14.5391C8.30388 15.1954 6.33646 15.1493 4.58443 14.4101C2.83241 13.6709 1.42659 12.2937 0.651426 10.5573C-0.123737 8.82086 -0.210367 6.85481 0.409064 5.05693C1.0285 3.25906 2.30774 1.7636 3.98795 0.873131C5.66817 -0.0173339 7.62391 -0.236312 9.45946 0.260503C11.295 0.757317 12.8733 1.93283 13.875 3.54919Z" fill="url(#paint0_linear_894_1729)"/>
<path d="M15.3111 4.25161C15.8286 4.25161 16.2482 3.83206 16.2482 3.31453C16.2482 2.79699 15.8286 2.37744 15.3111 2.37744C14.7936 2.37744 14.374 2.79699 14.374 3.31453C14.374 3.83206 14.7936 4.25161 15.3111 4.25161Z" fill="#F26555"/>
<defs>
<linearGradient id="paint0_linear_894_1729" x1="7.56507" y1="0.149423" x2="7.56507" y2="15.1121" gradientUnits="userSpaceOnUse">
<stop stop-color="#F37555"/>
<stop offset="1" stop-color="#EE2F58"/>
</linearGradient>
</defs>
</svg>
