<svg width="21" height="28" viewBox="0 0 21 28" fill="none" xmlns="http://www.w3.org/2000/svg">
<path d="M10.3146 17.0695C10.3267 17.2361 10.421 17.4561 10.5772 17.5334C11.1796 17.8357 11.9502 15.6624 13.8483 14.0389C16.0468 12.1594 17.8626 12.6336 18.4152 10.8829C18.6812 10.041 18.3465 9.65621 18.7756 8.76455C19.3728 7.52413 20.3133 7.65986 20.7733 6.67886C21.3019 5.55184 20.8814 3.61733 19.7762 2.7944C18.2899 1.68799 15.9644 2.88546 15.2471 4.3853C14.782 5.35942 14.9364 6.58953 14.6584 6.60155C14.3941 6.61358 14.346 5.48999 13.7402 5.20651C12.9473 4.83542 11.3718 5.9865 11.3118 7.2733C11.2586 8.45874 12.4942 9.63731 12.2711 9.86237C12.1836 9.95171 11.9914 9.7696 11.8575 9.83832C11.6173 9.96201 11.667 10.8331 12.5526 13.5458C12.544 14.4306 12.3055 14.9718 12.0823 15.3051C11.4267 16.2929 10.2717 16.4355 10.3146 17.0695Z" fill="url(#paint0_linear_44_1174)"/>
<path d="M18.7306 5.15499C18.2329 5.47798 17.7695 5.85079 17.3593 6.28201C16.9474 6.71152 16.5922 7.19772 16.3021 7.72859C16.1579 7.99488 16.0258 8.26977 15.904 8.55153C15.8456 8.69412 15.7838 8.835 15.7272 8.97931C15.6688 9.12191 15.6122 9.26622 15.5556 9.41225L15.214 10.285L15.1265 10.5032L15.0355 10.7197C14.9755 10.864 14.9137 11.0066 14.8502 11.1509C14.7249 11.4378 14.5928 11.7196 14.4572 11.9996C14.3885 12.1388 14.3199 12.2796 14.2478 12.4154L14.1414 12.6215L14.0316 12.826L13.9217 13.0304L13.8084 13.2331L13.6952 13.4359L13.5768 13.6352L13.4583 13.8345L13.3365 14.0303C13.2541 14.1609 13.1734 14.2914 13.0876 14.4186L12.9606 14.611L12.8971 14.7072L12.8319 14.8017C12.7427 14.9254 12.6551 15.0525 12.5642 15.1745L12.2879 15.5387C12.1952 15.659 12.0957 15.7758 11.9996 15.8927C11.6083 16.3582 11.1912 16.798 10.7381 17.1898L10.7158 17.1623C11.1311 16.7276 11.519 16.2655 11.8811 15.781L12.015 15.5971C12.0596 15.5353 12.106 15.4769 12.1489 15.4133L12.408 15.0388C12.5745 14.7845 12.741 14.5303 12.8988 14.2691C12.9795 14.1403 13.0567 14.008 13.134 13.8757L13.249 13.6781L13.3605 13.4771L13.4738 13.2778L13.5836 13.0751L13.6917 12.8724L13.7981 12.6679C14.0779 12.1216 14.3456 11.5667 14.5893 10.9997C14.833 10.4328 15.0596 9.85379 15.2913 9.27481C15.3496 9.1305 15.408 8.98447 15.468 8.84015C15.5281 8.69584 15.5933 8.55324 15.6568 8.41065C15.789 8.12717 15.928 7.84542 16.0859 7.57569C16.1253 7.50868 16.1682 7.4434 16.2094 7.3764L16.2712 7.27847L16.3382 7.18226C16.3828 7.11869 16.4257 7.05341 16.472 6.99156L16.6145 6.80945C16.6608 6.7476 16.7123 6.6909 16.7621 6.63249L16.8376 6.54659C16.8633 6.51738 16.8873 6.48818 16.9148 6.4624C17.0212 6.35417 17.1259 6.2425 17.2375 6.13942C17.6837 5.72881 18.1797 5.38348 18.7134 5.12234L18.7306 5.15499Z" fill="url(#paint1_linear_44_1174)"/>
<path d="M3.84619 2.9971C5.92453 3.14829 8.59668 3.1397 11.5606 3.0538L10.4176 14.0938L4.08989 14.3842L3.84619 2.9971Z" fill="url(#paint2_linear_44_1174)"/>
<path d="M3.84619 3.79773C5.92453 3.94892 8.59668 3.94033 11.5606 3.85443L10.4176 14.8945L4.08989 15.1848L3.84619 3.79773Z" fill="url(#paint3_linear_44_1174)"/>
<path d="M14.7011 10.2609C13.2973 15.0044 10.874 18.2652 9.29161 17.5437C7.70926 16.8221 7.56338 12.3913 8.96896 7.64782C10.3728 2.90435 12.7961 -0.356466 14.3785 0.365106C15.9608 1.08668 16.1067 5.51747 14.7011 10.2609Z" fill="url(#paint4_linear_44_1174)"/>
<path d="M14.449 6.81456C14.3168 7.01042 13.5771 6.4847 12.7945 5.63771C12.012 4.79073 11.4851 3.94718 11.6172 3.75132C11.7494 3.55547 12.4891 4.08118 13.2717 4.92817C14.0542 5.77516 14.5811 6.61871 14.449 6.81456Z" fill="url(#paint5_linear_44_1174)"/>
<path d="M13.6082 9.27822C13.476 9.47408 12.7363 8.94836 11.9537 8.10137C11.1711 7.2561 10.6443 6.41083 10.7764 6.21497C10.9086 6.01912 11.6482 6.54484 12.4308 7.39182C13.2134 8.23881 13.7403 9.08237 13.6082 9.27822Z" fill="url(#paint6_linear_44_1174)"/>
<path d="M12.7859 11.4584C12.6537 11.6542 11.9141 11.1285 11.1315 10.2815C10.3489 9.43627 9.82199 8.591 9.95414 8.39515C10.0863 8.19929 10.826 8.72501 11.6086 9.572C12.3912 10.4173 12.918 11.2625 12.7859 11.4584Z" fill="url(#paint7_linear_44_1174)"/>
<path d="M11.8779 13.599C11.7458 13.7949 11.0061 13.2692 10.2235 12.4222C9.44091 11.5769 8.91403 10.7317 9.04618 10.5358C9.17833 10.34 9.91801 10.8657 10.7006 11.7127C11.4832 12.5596 12.0101 13.4032 11.8779 13.599Z" fill="url(#paint8_linear_44_1174)"/>
<path d="M4.19287 5.61543L4.29756 0.665797L2.4715 0.626282L2.36682 5.59825C2.15744 5.75631 1.28388 6.44008 1.2753 6.79743C1.26844 7.15994 1.0745 16.2466 1.03331 18.2051C1.02817 18.4388 1.20151 18.6535 1.41432 18.748C1.77987 18.9112 2.39943 19.1329 2.97264 19.1449C3.54586 19.1569 4.12594 18.9611 4.49836 18.8133C4.7146 18.7274 4.8313 18.5195 4.83645 18.2859L5.08015 6.77682C5.08015 6.77682 5.07844 6.23564 4.19287 5.61543Z" fill="url(#paint9_linear_44_1174)"/>
<path d="M4.21502 9.34867L2.18645 9.30572C2.07489 9.304 1.98221 9.39162 1.97878 9.50501L1.86379 14.9357C1.86208 15.0474 1.94961 15.1401 2.06288 15.1436L4.09145 15.1865C4.20301 15.1882 4.29568 15.1006 4.29912 14.9872L4.41411 9.55655C4.41582 9.44316 4.32658 9.35039 4.21502 9.34867Z" fill="url(#paint10_linear_44_1174)"/>
<path d="M4.22229 4.16886L2.39795 4.12934L2.44944 1.69318L4.27378 1.73269L4.22229 4.16886Z" fill="url(#paint11_linear_44_1174)"/>
<path d="M4.19606 0.0541487L2.59826 0.0197882C2.45066 0.0163522 2.32881 0.133179 2.3271 0.280929L2.29963 1.5746C2.2962 1.72235 2.41291 1.84433 2.5605 1.84604L4.1583 1.88041C4.3059 1.88384 4.42775 1.76702 4.42947 1.61927L4.45693 0.325597C4.45865 0.179565 4.34194 0.0575847 4.19606 0.0541487Z" fill="url(#paint12_linear_44_1174)"/>
<path d="M7.57918 6.95199C7.26511 7.06882 6.91843 7.07226 6.59921 6.96574C6.24396 6.84719 5.66902 6.82142 4.79718 7.21314C3.08783 7.97938 3.1479 11.3261 5.57463 11.826C8.74277 12.4789 10.2307 10.9086 10.5036 9.77815C10.7765 8.64769 10.054 7.2097 8.64666 6.90389C8.18672 6.80424 7.83318 6.8575 7.57918 6.95199Z" fill="url(#paint13_linear_44_1174)"/>
<path opacity="0.23" d="M5.38917 7.46401C5.66719 7.48291 6.18721 7.60145 5.7101 8.20963C5.23471 8.81954 4.83483 9.82458 5.03906 10.4774C5.24157 11.1303 3.92009 10.3228 3.84457 9.45693C3.76906 8.58932 4.5242 7.40903 5.38917 7.46401Z" fill="white"/>
<path d="M8.00622 7.3334C8.00622 7.49146 7.59776 7.62031 7.09491 7.62031C6.59206 7.62031 6.18359 7.49146 6.18359 7.3334C6.18359 7.17534 6.59206 7.3334 7.09491 7.3334C7.59776 7.3334 8.00622 7.17534 8.00622 7.3334Z" fill="url(#paint14_linear_44_1174)"/>
<path d="M6.85802 7.29565C6.85802 7.29565 6.56798 6.0896 7.94438 5.31821C9.32079 4.54682 9.2899 4.47638 9.3637 4.88527C9.43921 5.29416 9.85454 6.74073 8.34598 7.36265C6.83742 7.98286 6.85802 7.29565 6.85802 7.29565Z" fill="url(#paint15_linear_44_1174)"/>
<path opacity="0.23" d="M9.11505 4.92817C8.89881 5.28037 7.89654 6.86782 7.0144 7.4949C7.0144 7.4949 8.0613 7.63062 8.81128 6.92623C9.45315 6.32492 9.25063 5.23913 9.17855 4.93676C9.16997 4.90927 9.1305 4.9024 9.11505 4.92817Z" fill="white"/>
<path d="M7.03234 7.51724C7.06155 7.71481 7.22991 7.49662 7.15088 7.10319C7.07185 6.70976 6.99111 5.77516 6.42244 5.93837C5.85549 6.1033 6.91208 6.68228 7.03234 7.51724Z" fill="url(#paint16_linear_44_1174)"/>
<path d="M3.78606 15.9459L3.16307 23.5911L3.06182 25.3899C2.84214 26.5496 2.60874 27.3622 2.39764 27.3656C1.90852 27.3742 1.21173 26.4843 0.690002 25.7576C0.478907 25.4621 0.296988 25.1923 0.168271 25.0222C-0.274514 24.4295 0.279827 19.1019 0.427422 18.3993C0.575017 17.6966 0.674558 12.1937 0.624787 11.924C0.576733 11.6526 1.01952 9.33322 1.01952 9.33322L1.66653 10.0737L1.70944 10.1218L2.69455 9.55485L3.13733 10.2455C3.13733 10.2455 3.55094 13.7331 3.78606 15.9459Z" fill="url(#paint17_linear_44_1174)"/>
<path d="M19.2493 25.6922C19.2664 26.2953 18.9541 26.833 18.4735 27.1319C18.2418 27.2763 17.9707 27.3622 17.6789 27.3759C13.167 27.5632 2.74096 28.6438 2.39944 27.3639C2.00642 25.8829 3.53385 19.174 3.48408 18.3356C3.43431 17.4973 3.13741 10.2455 3.13741 10.2455L3.89941 10.4344L4.12423 10.4911L5.75121 9.75067L7.18082 10.541L9.05321 9.75067L10.4828 10.5891L11.9124 9.99635L13.0949 10.5891L14.5743 9.75067L15.5096 10.4911L17.0371 9.75067L17.9243 10.5891L18.8614 9.75067L18.9095 10.541C18.9095 10.541 19.1394 21.4315 19.2493 25.6922Z" fill="url(#paint18_linear_44_1174)"/>
<defs>
<linearGradient id="paint0_linear_44_1174" x1="13.1419" y1="4.104" x2="17.1991" y2="15.2031" gradientUnits="userSpaceOnUse">
<stop stop-color="#41A362"/>
<stop offset="1" stop-color="#204F2E"/>
</linearGradient>
<linearGradient id="paint1_linear_44_1174" x1="13.2489" y1="7.12061" x2="16.2001" y2="15.194" gradientUnits="userSpaceOnUse">
<stop stop-color="#41A362"/>
<stop offset="1" stop-color="#204F2E"/>
</linearGradient>
<linearGradient id="paint2_linear_44_1174" x1="8.10406" y1="-2.86567" x2="7.13057" y2="11.4355" gradientUnits="userSpaceOnUse">
<stop stop-color="#53D8FF"/>
<stop offset="1" stop-color="#3840F7"/>
</linearGradient>
<linearGradient id="paint3_linear_44_1174" x1="4.06331" y1="3.65877" x2="11.0358" y2="14.4987" gradientUnits="userSpaceOnUse">
<stop stop-color="#53D8FF"/>
<stop offset="1" stop-color="#3840F7"/>
</linearGradient>
<linearGradient id="paint4_linear_44_1174" x1="16.2904" y1="-4.32944" x2="4.93012" y2="29.4712" gradientUnits="userSpaceOnUse">
<stop stop-color="#FDF53F"/>
<stop offset="0.653" stop-color="#E57C58"/>
<stop offset="1" stop-color="#D93C65"/>
</linearGradient>
<linearGradient id="paint5_linear_44_1174" x1="18.3927" y1="2.55674" x2="5.96779" y2="8.86412" gradientUnits="userSpaceOnUse">
<stop stop-color="#FDF53F"/>
<stop offset="0.653" stop-color="#E57C58"/>
<stop offset="1" stop-color="#D93C65"/>
</linearGradient>
<linearGradient id="paint6_linear_44_1174" x1="18.7749" y1="4.39931" x2="6.35002" y2="10.7067" gradientUnits="userSpaceOnUse">
<stop stop-color="#FDF53F"/>
<stop offset="0.653" stop-color="#E57C58"/>
<stop offset="1" stop-color="#D93C65"/>
</linearGradient>
<linearGradient id="paint7_linear_44_1174" x1="15.9734" y1="8.48741" x2="6.7206" y2="11.376" gradientUnits="userSpaceOnUse">
<stop stop-color="#FDF53F"/>
<stop offset="0.653" stop-color="#E57C58"/>
<stop offset="1" stop-color="#D93C65"/>
</linearGradient>
<linearGradient id="paint8_linear_44_1174" x1="16.2399" y1="10.2611" x2="6.98712" y2="13.1496" gradientUnits="userSpaceOnUse">
<stop stop-color="#FDF53F"/>
<stop offset="0.653" stop-color="#E57C58"/>
<stop offset="1" stop-color="#D93C65"/>
</linearGradient>
<linearGradient id="paint9_linear_44_1174" x1="8.83376" y1="0.617688" x2="-12.7353" y2="37.6889" gradientUnits="userSpaceOnUse">
<stop stop-color="#2C759E"/>
<stop offset="1" stop-color="#051042"/>
</linearGradient>
<linearGradient id="paint10_linear_44_1174" x1="5.0994" y1="8.86755" x2="-2.65546" y2="22.1961" gradientUnits="userSpaceOnUse">
<stop stop-color="#CE1567"/>
<stop offset="1" stop-color="#7A1DBC"/>
</linearGradient>
<linearGradient id="paint11_linear_44_1174" x1="4.09335" y1="1.62644" x2="2.57633" y2="4.23377" gradientUnits="userSpaceOnUse">
<stop stop-color="#CE1567"/>
<stop offset="1" stop-color="#7A1DBC"/>
</linearGradient>
<linearGradient id="paint12_linear_44_1174" x1="4.15663" y1="-0.390803" x2="1.07611" y2="4.90379" gradientUnits="userSpaceOnUse">
<stop stop-color="#CE1567"/>
<stop offset="1" stop-color="#7A1DBC"/>
</linearGradient>
<linearGradient id="paint13_linear_44_1174" x1="2.22248" y1="2.23255" x2="6.65138" y2="8.70705" gradientUnits="userSpaceOnUse">
<stop stop-color="#FDF53F"/>
<stop offset="1" stop-color="#D93C65"/>
</linearGradient>
<linearGradient id="paint14_linear_44_1174" x1="7.69985" y1="6.57706" x2="6.80477" y2="7.70137" gradientUnits="userSpaceOnUse">
<stop stop-color="#FDF53F"/>
<stop offset="1" stop-color="#D93C65"/>
</linearGradient>
<linearGradient id="paint15_linear_44_1174" x1="6.83169" y1="6.12926" x2="9.47175" y2="6.12926" gradientUnits="userSpaceOnUse">
<stop stop-color="#152C19"/>
<stop offset="0.9964" stop-color="#397851"/>
</linearGradient>
<linearGradient id="paint16_linear_44_1174" x1="6.25629" y1="6.75617" x2="7.17171" y2="6.75617" gradientUnits="userSpaceOnUse">
<stop stop-color="#E40045"/>
<stop offset="1" stop-color="#5C0E16"/>
</linearGradient>
<linearGradient id="paint17_linear_44_1174" x1="17.0667" y1="-3.76129" x2="-5.2515" y2="28.366" gradientUnits="userSpaceOnUse">
<stop stop-color="#FDF53F"/>
<stop offset="1" stop-color="#D93C65"/>
</linearGradient>
<linearGradient id="paint18_linear_44_1174" x1="21.0188" y1="5.62291" x2="-4.6245" y2="38.5683" gradientUnits="userSpaceOnUse">
<stop stop-color="#FDF53F"/>
<stop offset="1" stop-color="#D93C65"/>
</linearGradient>
</defs>
</svg>
