<svg width="47" height="47" viewBox="0 0 47 47" fill="none" xmlns="http://www.w3.org/2000/svg">
<circle cx="23.5" cy="23.5" r="23.5" fill="#3C3D45"/>
<path d="M23.2967 27.0321C23.3098 27.2083 23.4132 27.4409 23.5843 27.5227C24.244 27.8425 25.088 25.5439 27.1669 23.8269C29.5748 21.8391 31.5634 22.3406 32.1687 20.489C32.46 19.5987 32.0935 19.1917 32.5634 18.2486C33.2175 16.9368 34.2476 17.0803 34.7513 16.0428C35.3303 14.8508 34.8698 12.8049 33.6593 11.9345C32.0315 10.7644 29.4845 12.0308 28.6988 13.6171C28.1894 14.6473 28.3586 15.9483 28.0541 15.961C27.7646 15.9738 27.712 14.7854 27.0485 14.4856C26.1801 14.0931 24.4546 15.3105 24.3888 16.6715C24.3305 17.9252 25.6839 19.1717 25.4395 19.4097C25.3436 19.5042 25.1331 19.3116 24.9865 19.3843C24.7233 19.5151 24.7779 20.4363 25.7478 23.3054C25.7384 24.2411 25.4771 24.8135 25.2327 25.166C24.5147 26.2108 23.2497 26.3616 23.2967 27.0321Z" fill="url(#paint0_linear_548_1679)"/>
<path d="M32.5148 14.4312C31.9697 14.7728 31.4622 15.1671 31.013 15.6231C30.5619 16.0774 30.1728 16.5916 29.8551 17.1531C29.6972 17.4347 29.5525 17.7254 29.419 18.0234C29.3551 18.1742 29.2875 18.3232 29.2254 18.4758C29.1615 18.6267 29.0995 18.7793 29.0375 18.9337L28.6634 19.8568L28.5675 20.0875L28.4679 20.3165C28.4021 20.4691 28.3345 20.6199 28.2649 20.7725C28.1277 21.076 27.983 21.374 27.8345 21.6701C27.7593 21.8173 27.6841 21.9663 27.6052 22.1099L27.4886 22.3279L27.3683 22.5441L27.248 22.7603L27.124 22.9748L26.9999 23.1892L26.8702 23.3999L26.7405 23.6107L26.6071 23.8178C26.5168 23.9559 26.4285 24.094 26.3345 24.2285L26.1954 24.432L26.1259 24.5337L26.0544 24.6337C25.9567 24.7645 25.8608 24.899 25.7612 25.028L25.4586 25.4132C25.3571 25.5404 25.2481 25.6639 25.1428 25.7875C24.7142 26.2799 24.2575 26.745 23.7613 27.1593L23.7368 27.1302C24.1917 26.6705 24.6165 26.1818 25.0131 25.6694L25.1597 25.475C25.2086 25.4095 25.2593 25.3478 25.3063 25.2805L25.5902 24.8844C25.7725 24.6155 25.9548 24.3466 26.1277 24.0704C26.2161 23.9341 26.3007 23.7942 26.3853 23.6543L26.5112 23.4454L26.6334 23.2328L26.7574 23.022L26.8777 22.8076L26.9961 22.5932L27.1127 22.377C27.4191 21.7991 27.7123 21.2123 27.9792 20.6126C28.2461 20.013 28.4942 19.4007 28.748 18.7884C28.8119 18.6357 28.8758 18.4813 28.9416 18.3287C29.0074 18.176 29.0788 18.0252 29.1484 17.8744C29.2931 17.5746 29.4453 17.2766 29.6183 16.9914C29.6615 16.9205 29.7085 16.8514 29.7536 16.7806L29.8213 16.677L29.8946 16.5753C29.9435 16.508 29.9905 16.439 30.0412 16.3736L30.1972 16.181C30.248 16.1156 30.3044 16.0556 30.3589 15.9938L30.4416 15.903C30.4698 15.8721 30.4961 15.8412 30.5262 15.8139C30.6427 15.6995 30.7574 15.5814 30.8795 15.4723C31.3682 15.0381 31.9115 14.6729 32.496 14.3967L32.5148 14.4312Z" fill="url(#paint1_linear_548_1679)"/>
<path d="M16.2124 12.1489C18.4887 12.3088 21.4153 12.2997 24.6615 12.2089L23.4096 23.885L16.4793 24.1921L16.2124 12.1489Z" fill="url(#paint2_linear_548_1679)"/>
<path d="M16.2124 12.9957C18.4887 13.1556 21.4153 13.1465 24.6615 13.0556L23.4096 24.7317L16.4793 25.0388L16.2124 12.9957Z" fill="url(#paint3_linear_548_1679)"/>
<path d="M28.1012 19.8312C26.5637 24.848 23.9096 28.2967 22.1765 27.5335C20.4435 26.7704 20.2837 22.0843 21.8232 17.0676C23.3607 12.0508 26.0148 8.60214 27.7479 9.36528C29.4809 10.1284 29.6407 14.8145 28.1012 19.8312Z" fill="url(#paint4_linear_548_1679)"/>
<path d="M27.8248 16.1863C27.6801 16.3935 26.87 15.8375 26.0128 14.9417C25.1557 14.0459 24.5787 13.1537 24.7234 12.9466C24.8681 12.7395 25.6783 13.2955 26.5354 14.1913C27.3925 15.087 27.9696 15.9792 27.8248 16.1863Z" fill="url(#paint5_linear_548_1679)"/>
<path d="M26.9039 18.7919C26.7592 18.9991 25.9491 18.4431 25.092 17.5473C24.2348 16.6533 23.6578 15.7593 23.8025 15.5522C23.9472 15.3451 24.7574 15.9011 25.6145 16.7969C26.4716 17.6926 27.0487 18.5848 26.9039 18.7919Z" fill="url(#paint6_linear_548_1679)"/>
<path d="M26.0036 21.0977C25.8588 21.3049 25.0487 20.7488 24.1916 19.8531C23.3344 18.9591 22.7574 18.0651 22.9021 17.858C23.0469 17.6508 23.857 18.2069 24.7141 19.1026C25.5712 19.9966 26.1483 20.8906 26.0036 21.0977Z" fill="url(#paint7_linear_548_1679)"/>
<path d="M25.0094 23.3617C24.8647 23.5688 24.0545 23.0128 23.1974 22.117C22.3403 21.2231 21.7632 20.3291 21.908 20.122C22.0527 19.9148 22.8628 20.4708 23.72 21.3666C24.5771 22.2624 25.1541 23.1545 25.0094 23.3617Z" fill="url(#paint8_linear_548_1679)"/>
<path d="M16.5919 14.9181L16.7066 9.68327L14.7066 9.64148L14.592 14.8999C14.3626 15.0671 13.4059 15.7902 13.3965 16.1682C13.389 16.5516 13.1766 26.1617 13.1315 28.2331C13.1258 28.4802 13.3157 28.7073 13.5488 28.8073C13.9491 28.9799 14.6277 29.2143 15.2555 29.227C15.8833 29.2397 16.5186 29.0326 16.9265 28.8763C17.1633 28.7855 17.2912 28.5656 17.2968 28.3185L17.5637 16.1464C17.5637 16.1464 17.5618 15.574 16.5919 14.9181Z" fill="url(#paint9_linear_548_1679)"/>
<path d="M16.6167 18.8664L14.3949 18.821C14.2727 18.8192 14.1712 18.9119 14.1675 19.0318L14.0415 24.7753C14.0397 24.8934 14.1355 24.9916 14.2596 24.9952L16.4813 25.0406C16.6035 25.0424 16.705 24.9498 16.7088 24.8299L16.8347 19.0863C16.8366 18.9664 16.7389 18.8683 16.6167 18.8664Z" fill="url(#paint10_linear_548_1679)"/>
<path d="M16.6241 13.3881L14.626 13.3464L14.6824 10.7698L16.6804 10.8116L16.6241 13.3881Z" fill="url(#paint11_linear_548_1679)"/>
<path d="M16.5957 9.03642L14.8457 9.00008C14.684 8.99644 14.5506 9.12 14.5487 9.27626L14.5186 10.6445C14.5149 10.8007 14.6427 10.9297 14.8043 10.9316L16.5543 10.9679C16.716 10.9715 16.8494 10.848 16.8513 10.6917L16.8814 9.32351C16.8833 9.16906 16.7554 9.04005 16.5957 9.03642Z" fill="url(#paint12_linear_548_1679)"/>
<path d="M20.3008 16.3317C19.9568 16.4553 19.5771 16.4589 19.2275 16.3463C18.8384 16.2209 18.2087 16.1937 17.2539 16.6079C15.3817 17.4183 15.4475 20.9579 18.1054 21.4866C21.5752 22.1771 23.2049 20.5163 23.5038 19.3207C23.8026 18.1251 23.0113 16.6043 21.47 16.2809C20.9662 16.1755 20.579 16.2318 20.3008 16.3317Z" fill="url(#paint13_linear_548_1679)"/>
<path opacity="0.23" d="M17.9025 16.8732C18.207 16.8932 18.7765 17.0185 18.254 17.6618C17.7333 18.3068 17.2954 19.3697 17.519 20.0602C17.7408 20.7507 16.2935 19.8967 16.2108 18.9809C16.1281 18.0633 16.9551 16.815 17.9025 16.8732Z" fill="white"/>
<path d="M20.7687 16.7351C20.7687 16.9022 20.3213 17.0385 19.7706 17.0385C19.2198 17.0385 18.7725 16.9022 18.7725 16.7351C18.7725 16.5679 19.2198 16.7351 19.7706 16.7351C20.3213 16.7351 20.7687 16.5679 20.7687 16.7351Z" fill="url(#paint14_linear_548_1679)"/>
<path d="M19.5113 16.6951C19.5113 16.6951 19.1937 15.4196 20.7012 14.6038C22.2086 13.7879 22.1748 13.7134 22.2556 14.1459C22.3383 14.5783 22.7932 16.1082 21.141 16.766C19.4888 17.4219 19.5113 16.6951 19.5113 16.6951Z" fill="url(#paint15_linear_548_1679)"/>
<path opacity="0.23" d="M21.9828 14.1913C21.746 14.5638 20.6483 16.2427 19.6821 16.9059C19.6821 16.9059 20.8287 17.0494 21.6501 16.3044C22.3531 15.6685 22.1313 14.5202 22.0524 14.2004C22.043 14.1713 21.9997 14.164 21.9828 14.1913Z" fill="white"/>
<path d="M19.7011 16.9295C19.733 17.1384 19.9172 16.9077 19.8307 16.4916C19.7443 16.0755 19.6559 15.087 19.0338 15.2596C18.4135 15.4341 19.5695 16.0464 19.7011 16.9295Z" fill="url(#paint16_linear_548_1679)"/>
<path d="M16.1466 25.8438L15.4643 33.9294L15.3534 35.8318C15.1128 37.0583 14.8572 37.9178 14.626 37.9214C14.0903 37.9305 13.3271 36.9893 12.7557 36.2207C12.5245 35.9082 12.3253 35.6229 12.1843 35.443C11.6993 34.8161 12.3065 29.1816 12.4681 28.4384C12.6298 27.6953 12.7388 21.8754 12.6843 21.5901C12.6317 21.3031 13.1166 18.8501 13.1166 18.8501L13.8252 19.6332L13.8722 19.6841L14.9512 19.0845L15.4361 19.8149C15.4361 19.8149 15.8891 23.5035 16.1466 25.8438Z" fill="url(#paint17_linear_548_1679)"/>
<path d="M33.0825 36.1516C33.1013 36.7894 32.7592 37.3581 32.2329 37.6743C31.9792 37.8269 31.6822 37.9178 31.3626 37.9323C26.421 38.1303 15.0021 39.2732 14.628 37.9196C14.1976 36.3533 15.8705 29.2579 15.816 28.3712C15.7614 27.4845 15.4363 19.8149 15.4363 19.8149L16.2708 20.0148L16.5171 20.0748L18.299 19.2916L19.8648 20.1274L21.9155 19.2916L23.4812 20.1783L25.047 19.5515L26.3421 20.1783L27.9623 19.2916L28.9867 20.0748L30.6596 19.2916L31.6314 20.1783L32.6577 19.2916L32.7104 20.1274C32.7104 20.1274 32.9622 31.6455 33.0825 36.1516Z" fill="url(#paint18_linear_548_1679)"/>
<defs>
<linearGradient id="paint0_linear_548_1679" x1="26.3932" y1="13.3196" x2="30.57" y2="25.1524" gradientUnits="userSpaceOnUse">
<stop stop-color="#41A362"/>
<stop offset="1" stop-color="#204F2E"/>
</linearGradient>
<linearGradient id="paint1_linear_548_1679" x1="26.5112" y1="16.5101" x2="29.5494" y2="25.1171" gradientUnits="userSpaceOnUse">
<stop stop-color="#41A362"/>
<stop offset="1" stop-color="#204F2E"/>
</linearGradient>
<linearGradient id="paint2_linear_548_1679" x1="20.8758" y1="5.94839" x2="19.8812" y2="21.0782" gradientUnits="userSpaceOnUse">
<stop stop-color="#53D8FF"/>
<stop offset="1" stop-color="#3840F7"/>
</linearGradient>
<linearGradient id="paint3_linear_548_1679" x1="16.4502" y1="12.8487" x2="23.7147" y2="24.5443" gradientUnits="userSpaceOnUse">
<stop stop-color="#53D8FF"/>
<stop offset="1" stop-color="#3840F7"/>
</linearGradient>
<linearGradient id="paint4_linear_548_1679" x1="29.8419" y1="4.40027" x2="18.1597" y2="40.3949" gradientUnits="userSpaceOnUse">
<stop stop-color="#FDF53F"/>
<stop offset="0.653" stop-color="#E57C58"/>
<stop offset="1" stop-color="#D93C65"/>
</linearGradient>
<linearGradient id="paint5_linear_548_1679" x1="32.1441" y1="11.6832" x2="18.7349" y2="18.7324" gradientUnits="userSpaceOnUse">
<stop stop-color="#FDF53F"/>
<stop offset="0.653" stop-color="#E57C58"/>
<stop offset="1" stop-color="#D93C65"/>
</linearGradient>
<linearGradient id="paint6_linear_548_1679" x1="32.5628" y1="13.6319" x2="19.1535" y2="20.6812" gradientUnits="userSpaceOnUse">
<stop stop-color="#FDF53F"/>
<stop offset="0.653" stop-color="#E57C58"/>
<stop offset="1" stop-color="#D93C65"/>
</linearGradient>
<linearGradient id="paint7_linear_548_1679" x1="29.4947" y1="17.9556" x2="19.4254" y2="21.2108" gradientUnits="userSpaceOnUse">
<stop stop-color="#FDF53F"/>
<stop offset="0.653" stop-color="#E57C58"/>
<stop offset="1" stop-color="#D93C65"/>
</linearGradient>
<linearGradient id="paint8_linear_548_1679" x1="29.7868" y1="19.8314" x2="19.7176" y2="23.0867" gradientUnits="userSpaceOnUse">
<stop stop-color="#FDF53F"/>
<stop offset="0.653" stop-color="#E57C58"/>
<stop offset="1" stop-color="#D93C65"/>
</linearGradient>
<linearGradient id="paint9_linear_548_1679" x1="21.6748" y1="9.63239" x2="-0.735992" y2="49.5205" gradientUnits="userSpaceOnUse">
<stop stop-color="#2C759E"/>
<stop offset="1" stop-color="#051042"/>
</linearGradient>
<linearGradient id="paint10_linear_548_1679" x1="17.5853" y1="18.3576" x2="9.52777" y2="32.6989" gradientUnits="userSpaceOnUse">
<stop stop-color="#CE1567"/>
<stop offset="1" stop-color="#7A1DBC"/>
</linearGradient>
<linearGradient id="paint11_linear_548_1679" x1="16.4828" y1="10.6993" x2="14.9066" y2="13.5047" gradientUnits="userSpaceOnUse">
<stop stop-color="#CE1567"/>
<stop offset="1" stop-color="#7A1DBC"/>
</linearGradient>
<linearGradient id="paint12_linear_548_1679" x1="16.5525" y1="8.56583" x2="13.3517" y2="14.2627" gradientUnits="userSpaceOnUse">
<stop stop-color="#CE1567"/>
<stop offset="1" stop-color="#7A1DBC"/>
</linearGradient>
<linearGradient id="paint13_linear_548_1679" x1="14.434" y1="11.3404" x2="19.0566" y2="18.3385" gradientUnits="userSpaceOnUse">
<stop stop-color="#FDF53F"/>
<stop offset="1" stop-color="#D93C65"/>
</linearGradient>
<linearGradient id="paint14_linear_548_1679" x1="20.4331" y1="15.9351" x2="19.4944" y2="17.1562" gradientUnits="userSpaceOnUse">
<stop stop-color="#FDF53F"/>
<stop offset="1" stop-color="#D93C65"/>
</linearGradient>
<linearGradient id="paint15_linear_548_1679" x1="19.4825" y1="15.4615" x2="22.374" y2="15.4615" gradientUnits="userSpaceOnUse">
<stop stop-color="#152C19"/>
<stop offset="0.9964" stop-color="#397851"/>
</linearGradient>
<linearGradient id="paint16_linear_548_1679" x1="18.852" y1="16.1246" x2="19.8535" y2="16.1246" gradientUnits="userSpaceOnUse">
<stop stop-color="#E40045"/>
<stop offset="1" stop-color="#5C0E16"/>
</linearGradient>
<linearGradient id="paint17_linear_548_1679" x1="30.692" y1="5.00117" x2="7.38663" y2="39.743" gradientUnits="userSpaceOnUse">
<stop stop-color="#FDF53F"/>
<stop offset="1" stop-color="#D93C65"/>
</linearGradient>
<linearGradient id="paint18_linear_548_1679" x1="35.0206" y1="14.926" x2="8.14694" y2="50.6803" gradientUnits="userSpaceOnUse">
<stop stop-color="#FDF53F"/>
<stop offset="1" stop-color="#D93C65"/>
</linearGradient>
</defs>
</svg>
