<svg width="16" height="16" viewBox="0 0 16 16" fill="none" xmlns="http://www.w3.org/2000/svg">
<path d="M12.6667 7.33325H3.33333C2.59695 7.33325 2 7.93021 2 8.66659V13.3333C2 14.0696 2.59695 14.6666 3.33333 14.6666H12.6667C13.403 14.6666 14 14.0696 14 13.3333V8.66659C14 7.93021 13.403 7.33325 12.6667 7.33325Z" stroke="url(#paint0_linear_894_2304)" stroke-width="1.5" stroke-linecap="round" stroke-linejoin="round"/>
<path d="M4.66663 7.33325V4.66659C4.66663 3.78253 5.01782 2.93468 5.64294 2.30956C6.26806 1.68444 7.1159 1.33325 7.99996 1.33325C8.88401 1.33325 9.73186 1.68444 10.357 2.30956C10.9821 2.93468 11.3333 3.78253 11.3333 4.66659V7.33325" stroke="url(#paint1_linear_894_2304)" stroke-width="1.5" stroke-linecap="round" stroke-linejoin="round"/>
<defs>
<linearGradient id="paint0_linear_894_2304" x1="8" y1="7.33325" x2="8" y2="14.6666" gradientUnits="userSpaceOnUse">
<stop stop-color="#F26555"/>
<stop offset="1" stop-color="#EE2F58"/>
</linearGradient>
<linearGradient id="paint1_linear_894_2304" x1="7.99996" y1="1.33325" x2="7.99996" y2="7.33325" gradientUnits="userSpaceOnUse">
<stop stop-color="#F26555"/>
<stop offset="1" stop-color="#EE2F58"/>
</linearGradient>
</defs>
</svg>
