<svg width="29" height="29" viewBox="0 0 29 29" fill="none" xmlns="http://www.w3.org/2000/svg">
<path d="M12.6172 0.917844C13.6514 -0.135585 15.3486 -0.135584 16.3828 0.917845L17.3205 1.87301C17.9242 2.48796 18.7902 2.76933 19.6401 2.62668L20.9602 2.40511C22.416 2.16075 23.7891 3.15837 24.0066 4.6185L24.2038 5.94242C24.3308 6.79478 24.866 7.53142 25.6374 7.91556L26.8356 8.51222C28.157 9.17027 28.6815 10.7844 27.9992 12.0935L27.3806 13.2805C26.9823 14.0447 26.9823 14.9553 27.3806 15.7195L27.9992 16.9065C28.6815 18.2156 28.157 19.8297 26.8356 20.4878L25.6374 21.0844C24.866 21.4686 24.3308 22.2052 24.2038 23.0576L24.0066 24.3815C23.7891 25.8416 22.416 26.8392 20.9602 26.5949L19.6401 26.3733C18.7902 26.2307 17.9242 26.512 17.3205 27.127L16.3828 28.0822C15.3486 29.1356 13.6514 29.1356 12.6172 28.0822L11.6795 27.127C11.0758 26.512 10.2098 26.2307 9.3599 26.3733L8.03984 26.5949C6.58397 26.8392 5.21087 25.8416 4.99338 24.3815L4.79618 23.0576C4.66922 22.2052 4.13402 21.4686 3.36261 21.0844L2.16442 20.4878C0.842971 19.8297 0.318492 18.2156 1.00078 16.9065L1.61943 15.7195C2.01772 14.9553 2.01772 14.0447 1.61943 13.2805L1.00078 12.0935C0.318492 10.7844 0.842972 9.17026 2.16442 8.51222L3.36261 7.91556C4.13402 7.53142 4.66922 6.79478 4.79618 5.94242L4.99338 4.61849C5.21087 3.15837 6.58397 2.16075 8.03984 2.40512L9.3599 2.62668C10.2098 2.76933 11.0758 2.48796 11.6795 1.87301L12.6172 0.917844Z" fill="#EB5757"/>
</svg>
