<svg width="16" height="17" viewBox="0 0 16 17" fill="none" xmlns="http://www.w3.org/2000/svg">
<path d="M9.33329 1.83325H3.99996C3.64634 1.83325 3.3072 1.97373 3.05715 2.22378C2.8071 2.47382 2.66663 2.81296 2.66663 3.16659V13.8333C2.66663 14.1869 2.8071 14.526 3.05715 14.7761C3.3072 15.0261 3.64634 15.1666 3.99996 15.1666H12C12.3536 15.1666 12.6927 15.0261 12.9428 14.7761C13.1928 14.526 13.3333 14.1869 13.3333 13.8333V5.83325L9.33329 1.83325Z" stroke="url(#paint0_linear_894_1700)" stroke-width="1.5" stroke-linecap="round" stroke-linejoin="round"/>
<path d="M9.33337 1.83325V5.83325H13.3334" stroke="url(#paint1_linear_894_1700)" stroke-width="1.5" stroke-linecap="round" stroke-linejoin="round"/>
<path d="M10.6667 9.16675H5.33337" stroke="url(#paint2_linear_894_1700)" stroke-width="1.5" stroke-linecap="round" stroke-linejoin="round"/>
<path d="M10.6667 11.8333H5.33337" stroke="url(#paint3_linear_894_1700)" stroke-width="1.5" stroke-linecap="round" stroke-linejoin="round"/>
<path d="M6.66671 6.5H6.00004H5.33337" stroke="url(#paint4_linear_894_1700)" stroke-width="1.5" stroke-linecap="round" stroke-linejoin="round"/>
<defs>
<linearGradient id="paint0_linear_894_1700" x1="7.99996" y1="1.83325" x2="7.99996" y2="15.1666" gradientUnits="userSpaceOnUse">
<stop stop-color="#F26555"/>
<stop offset="1" stop-color="#EE2F58"/>
</linearGradient>
<linearGradient id="paint1_linear_894_1700" x1="11.3334" y1="1.83325" x2="11.3334" y2="5.83325" gradientUnits="userSpaceOnUse">
<stop stop-color="#F26555"/>
<stop offset="1" stop-color="#EE2F58"/>
</linearGradient>
<linearGradient id="paint2_linear_894_1700" x1="8.00004" y1="9.16675" x2="8.00004" y2="10.1667" gradientUnits="userSpaceOnUse">
<stop stop-color="#F26555"/>
<stop offset="1" stop-color="#EE2F58"/>
</linearGradient>
<linearGradient id="paint3_linear_894_1700" x1="8.00004" y1="11.8333" x2="8.00004" y2="12.8333" gradientUnits="userSpaceOnUse">
<stop stop-color="#F26555"/>
<stop offset="1" stop-color="#EE2F58"/>
</linearGradient>
<linearGradient id="paint4_linear_894_1700" x1="6.00004" y1="6.5" x2="6.00004" y2="7.5" gradientUnits="userSpaceOnUse">
<stop stop-color="#F26555"/>
<stop offset="1" stop-color="#EE2F58"/>
</linearGradient>
</defs>
</svg>
