<svg width="19" height="18" viewBox="0 0 19 18" fill="none" xmlns="http://www.w3.org/2000/svg">
<path d="M17.1594 6.98646L16.0313 6.45208L17.1594 5.9375L17.674 4.78958L18.2083 5.9375L19.3365 6.45208L18.2083 6.98646L17.674 8.11458L17.1594 6.98646ZM14.3886 2.69167L12.6865 1.9L14.3886 1.10833L15.1604 -0.59375L15.9719 1.10833L17.6542 1.9L15.9719 2.69167L15.1604 4.37396L14.3886 2.69167ZM6.86772 17.8521C6.39272 17.8521 5.99358 17.6773 5.67032 17.3276C5.34706 16.978 5.18543 16.5524 5.18543 16.051H8.5698C8.5698 16.5524 8.40157 16.978 8.06511 17.3276C7.72865 17.6773 7.32952 17.8521 6.86772 17.8521ZM4.25522 14.7448C4.07049 14.7448 3.91876 14.6821 3.80001 14.5568C3.68126 14.4314 3.62188 14.283 3.62188 14.1115C3.62188 13.9267 3.68126 13.775 3.80001 13.6562C3.91876 13.5375 4.07049 13.4781 4.25522 13.4781H9.48022C9.66494 13.4781 9.81668 13.5375 9.93543 13.6562C10.0542 13.775 10.1136 13.9267 10.1136 14.1115C10.1136 14.283 10.0542 14.4314 9.93543 14.5568C9.81668 14.6821 9.66494 14.7448 9.48022 14.7448H4.25522ZM3.72084 12.1719C2.81042 11.5781 2.08473 10.8392 1.54376 9.95521C1.00279 9.07118 0.7323 8.075 0.7323 6.96667C0.7323 5.30417 1.33924 3.86597 2.55313 2.65208C3.76702 1.43819 5.20522 0.83125 6.86772 0.83125C8.53022 0.83125 9.96841 1.43819 11.1823 2.65208C12.3962 3.86597 13.0031 5.30417 13.0031 6.96667C13.0031 8.075 12.7359 9.07118 12.2016 9.95521C11.6672 10.8392 10.9382 11.5781 10.0146 12.1719H3.72084ZM4.25522 10.6677H9.50001C10.1201 10.2455 10.605 9.71111 10.9547 9.06458C11.3043 8.41805 11.4792 7.71875 11.4792 6.96667C11.4792 5.7 11.0273 4.61476 10.1234 3.71094C9.21963 2.80712 8.13438 2.35521 6.86772 2.35521C5.58786 2.35521 4.49931 2.80712 3.60209 3.71094C2.70487 4.61476 2.25626 5.7 2.25626 6.96667C2.25626 7.71875 2.43438 8.41805 2.79063 9.06458C3.14688 9.71111 3.63508 10.2455 4.25522 10.6677Z" fill="url(#paint0_linear_894_1722)"/>
<defs>
<linearGradient id="paint0_linear_894_1722" x1="10.0344" y1="-0.59375" x2="10.0344" y2="17.8521" gradientUnits="userSpaceOnUse">
<stop stop-color="#F26555"/>
<stop offset="1" stop-color="#EE2F58"/>
</linearGradient>
</defs>
</svg>
